# This file uses centimeters as units for non-parametric coordinates.

v 0.207813 0.095491 -0.207813
v 0.000000 0.095491 -0.293893
v -0.207813 0.095491 -0.207813
v -0.293893 0.095491 0.000000
v -0.207813 0.095491 0.207813
v 0.000000 0.095491 0.293893
v 0.207813 0.095491 0.207813
v 0.293893 0.095491 0.000000
v 0.336249 0.345492 -0.336249
v 0.000000 0.345492 -0.475528
v -0.336249 0.345492 -0.336249
v -0.475528 0.345492 0.000000
v -0.336249 0.345492 0.336249
v 0.000000 0.345492 0.475528
v 0.336249 0.345492 0.336249
v 0.475528 0.345492 0.000000
v 0.336249 0.654508 -0.336249
v 0.000000 0.654508 -0.475528
v -0.336249 0.654508 -0.336249
v -0.475528 0.654508 0.000000
v -0.336249 0.654508 0.336249
v 0.000000 0.654508 0.475528
v 0.336249 0.654508 0.336249
v 0.475528 0.654508 0.000000
v 0.207813 0.904509 -0.207813
v 0.000000 0.904509 -0.293893
v -0.207813 0.904509 -0.207813
v -0.293893 0.904509 0.000000
v -0.207813 0.904509 0.207813
v 0.000000 0.904509 0.293893
v 0.207813 0.904509 0.207813
v 0.293893 0.904509 0.000000
v 0.000000 0.000000 0.000000
v 0.000000 1.000000 0.000000
vt 0.000000 0.200000
vt 0.125000 0.200000
vt 0.250000 0.200000
vt 0.375000 0.200000
vt 0.500000 0.200000
vt 0.625000 0.200000
vt 0.750000 0.200000
vt 0.875000 0.200000
vt 1.000000 0.200000
vt 0.000000 0.400000
vt 0.125000 0.400000
vt 0.250000 0.400000
vt 0.375000 0.400000
vt 0.500000 0.400000
vt 0.625000 0.400000
vt 0.750000 0.400000
vt 0.875000 0.400000
vt 1.000000 0.400000
vt 0.000000 0.600000
vt 0.125000 0.600000
vt 0.250000 0.600000
vt 0.375000 0.600000
vt 0.500000 0.600000
vt 0.625000 0.600000
vt 0.750000 0.600000
vt 0.875000 0.600000
vt 1.000000 0.600000
vt 0.000000 0.800000
vt 0.125000 0.800000
vt 0.250000 0.800000
vt 0.375000 0.800000
vt 0.500000 0.800000
vt 0.625000 0.800000
vt 0.750000 0.800000
vt 0.875000 0.800000
vt 1.000000 0.800000
vt 0.062500 0.000000
vt 0.187500 0.000000
vt 0.312500 0.000000
vt 0.437500 0.000000
vt 0.562500 0.000000
vt 0.687500 0.000000
vt 0.812500 0.000000
vt 0.937500 0.000000
vt 0.062500 1.000000
vt 0.187500 1.000000
vt 0.312500 1.000000
vt 0.437500 1.000000
vt 0.562500 1.000000
vt 0.687500 1.000000
vt 0.812500 1.000000
vt 0.937500 1.000000
vn 0.516523 -0.682941 -0.516523
vn 0.000000 -0.682941 -0.730473
vn 0.000000 -0.252361 -0.967633
vn 0.684220 -0.252361 -0.684220
vn -0.516523 -0.682941 -0.516523
vn -0.684220 -0.252361 -0.684220
vn -0.730473 -0.682941 0.000000
vn -0.967633 -0.252361 0.000000
vn -0.516523 -0.682941 0.516523
vn -0.684220 -0.252361 0.684220
vn -0.000000 -0.682941 0.730473
vn -0.000000 -0.252361 0.967633
vn 0.516523 -0.682941 0.516523
vn 0.684220 -0.252361 0.684220
vn 0.730473 -0.682941 0.000000
vn 0.967633 -0.252361 -0.000000
vn 0.000000 0.252361 -0.967633
vn 0.684220 0.252361 -0.684220
vn -0.684220 0.252361 -0.684220
vn -0.967633 0.252361 0.000000
vn -0.684220 0.252361 0.684220
vn -0.000000 0.252361 0.967633
vn 0.684220 0.252361 0.684220
vn 0.967633 0.252361 -0.000000
vn 0.000000 0.682941 -0.730473
vn 0.516523 0.682941 -0.516523
vn -0.516523 0.682941 -0.516522
vn -0.730473 0.682941 0.000000
vn -0.516523 0.682941 0.516523
vn -0.000000 0.682941 0.730473
vn 0.516523 0.682941 0.516523
vn 0.730473 0.682941 0.000000
vn -0.000000 -1.000000 -0.000000
vn -0.000000 1.000000 0.000000
s 1
f 1/1/1 2/2/2 10/11/3 9/10/4
f 2/2/2 3/3/5 11/12/6 10/11/3
f 3/3/5 4/4/7 12/13/8 11/12/6
f 4/4/7 5/5/9 13/14/10 12/13/8
f 5/5/9 6/6/11 14/15/12 13/14/10
f 6/6/11 7/7/13 15/16/14 14/15/12
f 7/7/13 8/8/15 16/17/16 15/16/14
f 8/8/15 1/9/1 9/18/4 16/17/16
f 9/10/4 10/11/3 18/20/17 17/19/18
f 10/11/3 11/12/6 19/21/19 18/20/17
f 11/12/6 12/13/8 20/22/20 19/21/19
f 12/13/8 13/14/10 21/23/21 20/22/20
f 13/14/10 14/15/12 22/24/22 21/23/21
f 14/15/12 15/16/14 23/25/23 22/24/22
f 15/16/14 16/17/16 24/26/24 23/25/23
f 16/17/16 9/18/4 17/27/18 24/26/24
f 17/19/18 18/20/17 26/29/25 25/28/26
f 18/20/17 19/21/19 27/30/27 26/29/25
f 19/21/19 20/22/20 28/31/28 27/30/27
f 20/22/20 21/23/21 29/32/29 28/31/28
f 21/23/21 22/24/22 30/33/30 29/32/29
f 22/24/22 23/25/23 31/34/31 30/33/30
f 23/25/23 24/26/24 32/35/32 31/34/31
f 24/26/24 17/27/18 25/36/26 32/35/32
f 2/2/2 1/1/1 33/37/33
f 3/3/5 2/2/2 33/38/33
f 4/4/7 3/3/5 33/39/33
f 5/5/9 4/4/7 33/40/33
f 6/6/11 5/5/9 33/41/33
f 7/7/13 6/6/11 33/42/33
f 8/8/15 7/7/13 33/43/33
f 1/9/1 8/8/15 33/44/33
f 25/28/26 26/29/25 34/45/34
f 26/29/25 27/30/27 34/46/34
f 27/30/27 28/31/28 34/47/34
f 28/31/28 29/32/29 34/48/34
f 29/32/29 30/33/30 34/49/34
f 30/33/30 31/34/31 34/50/34
f 31/34/31 32/35/32 34/51/34
f 32/35/32 25/36/26 34/52/34
