# This file uses centimeters as units for non-parametric coordinates.

v 0.500000 -0.000000 -0.500000
v -0.500000 -0.000000 -0.500000
v 0.500000 0.000000 0.500000
v -0.500000 0.000000 0.500000
v 0.500000 0.055896 -0.500000
v -0.500000 0.055896 -0.500000
v -0.500000 0.055896 0.500000
v 0.500000 0.055896 0.500000
v 0.500000 0.028195 0.455013
v 0.500000 0.000000 0.455013
v -0.500000 0.000000 0.455013
v -0.500000 0.028195 0.455013
v 0.500000 0.028195 -0.455013
v 0.500000 -0.000000 -0.455013
v -0.500000 -0.000000 -0.455013
v -0.500000 0.028195 -0.455013
v -0.500000 0.055896 -0.455013
v 0.500000 0.055896 -0.455013
v -0.500000 0.055896 0.455013
v 0.500000 0.055896 0.455013
vt 0.929714 1.000000
vt 0.929714 0.955013
vt 0.957909 0.955013
vt 0.985609 1.000000
vt 0.929714 0.955013
vt 0.929714 1.000000
vt 0.985609 1.000000
vt 0.957909 0.955013
vt 0.943811 0.000000
vt 0.929714 0.000000
vt 0.929714 0.044987
vt 0.943811 1.000000
vt 0.971511 1.000000
vt 0.957909 0.044987
vt 0.985609 0.000000
vt 0.971511 0.000000
vt 0.943811 1.000000
vt 0.943811 0.000000
vt 0.971511 0.000000
vt 0.971511 1.000000
vt 0.008376 1.000000
vt 0.008376 -0.000000
vt 0.918374 -0.000000
vt 0.918374 1.000000
vt 0.980155 -0.000000
vt 0.980155 1.000000
vt 0.935168 1.000000
vt 0.935168 -0.000000
vt 0.980155 -0.000000
vt 0.980155 1.000000
vt 0.935168 1.000000
vt 0.935168 -0.000000
vt 0.929714 1.000000
vt 0.929714 0.000000
vt 0.985609 0.000000
vt 0.985609 1.000000
vt 0.929714 0.000000
vt 0.929714 1.000000
vt 0.985609 1.000000
vt 0.985609 0.000000
vt 0.957909 0.044987
vt 0.929714 0.044987
vt 0.929714 0.000000
vt 0.985609 0.000000
vt 0.985609 0.955013
vt 0.985609 0.955013
vt 0.985609 0.044987
vt 0.985609 0.044987
vn 0.000000 1.000000 -0.000000
vn 0.000000 1.000000 -0.000000
vn 0.000000 1.000000 -0.000000
vn 0.000000 1.000000 -0.000000
vn 0.000000 0.000000 -1.000000
vn 0.000000 0.000000 -1.000000
vn 0.000000 0.000000 -1.000000
vn 0.000000 0.000000 -1.000000
vn -1.000000 0.000000 -0.000000
vn -1.000000 0.000000 -0.000000
vn -1.000000 0.000000 -0.000000
vn -1.000000 0.000000 -0.000000
vn -0.000000 0.000000 1.000000
vn -0.000000 0.000000 1.000000
vn -0.000000 0.000000 1.000000
vn -0.000000 0.000000 1.000000
vn 1.000000 0.000000 0.000000
vn 1.000000 0.000000 0.000000
vn 1.000000 0.000000 0.000000
vn 1.000000 0.000000 0.000000
vn 1.000000 0.000000 0.000000
vn 1.000000 0.000000 0.000000
vn 1.000000 0.000000 0.000000
vn 1.000000 0.000000 0.000000
vn -1.000000 0.000000 -0.000000
vn -1.000000 0.000000 -0.000000
vn -1.000000 0.000000 -0.000000
vn -1.000000 0.000000 -0.000000
vn 0.000000 1.000000 -0.000000
vn 0.000000 1.000000 -0.000000
vn 0.000000 1.000000 -0.000000
vn 0.000000 1.000000 -0.000000
vn 0.000000 1.000000 -0.000000
vn 0.000000 1.000000 -0.000000
vn 0.000000 1.000000 -0.000000
vn 0.000000 1.000000 -0.000000
vn -1.000000 0.000000 -0.000000
vn -0.000000 0.000000 1.000000
vn -0.000000 0.000000 1.000000
vn -0.000000 0.000000 1.000000
vn -0.000000 0.000000 1.000000
vn 1.000000 0.000000 0.000000
vn 0.000000 0.000000 -1.000000
vn 0.000000 0.000000 -1.000000
vn 0.000000 0.000000 -1.000000
vn 0.000000 0.000000 -1.000000
vn -1.000000 0.000000 -0.000000
vn 1.000000 0.000000 0.000000
s off
f 5/25/1 6/26/2 17/27/3 18/28/4
f 1/33/5 2/34/6 6/35/7 5/36/8
s 1
f 2/1/9 15/2/10 16/3/11 6/4/12
s off
f 4/37/13 3/38/14 8/39/15 7/40/16
s 2
f 14/5/17 1/6/18 5/7/19 13/8/20
f 3/10/21 10/11/22 9/14/23 8/15/24
s 1
f 12/41/25 11/42/26 4/43/27 7/44/28
s off
f 20/29/29 19/30/30 7/31/31 8/32/32
s 2
f 10/11/22 14/5/17 13/8/20 9/14/23
s 1
f 16/3/11 15/2/10 11/42/26 12/41/25
s off
f 13/21/33 16/22/34 12/23/35 9/24/36
s 1
f 6/4/12 16/3/11 17/45/37
s off
f 16/9/38 13/12/39 18/13/40 17/16/41
s 2
f 13/8/20 5/7/19 18/46/42
s off
f 9/17/43 12/18/44 19/19/45 20/20/46
s 1
f 12/41/25 7/44/28 19/47/47
s 2
f 8/15/24 9/14/23 20/48/48
