# This file uses centimeters as units for non-parametric coordinates.

v -0.500000 0.000000 0.500000
v -0.500000 0.537413 -0.500000
v -0.500000 0.537413 -0.261324
v -0.261324 0.537413 -0.500000
v -0.261324 0.537413 -0.261324
v 0.500000 0.000000 -0.500000
v 0.500000 0.000000 0.500000
v -0.500000 0.149364 0.473024
v 0.473024 0.149364 0.473024
v 0.473024 0.149364 -0.500000
vt 0.625000 0.000000
vt 0.375000 0.250000
vt 0.625000 0.250000
vt 0.375000 0.500000
vt 0.625000 0.500000
vt 0.375000 0.750000
vt 0.625000 0.750000
vt 0.875000 0.000000
vt 0.875000 0.250000
vt 0.625000 0.125000
vt 0.625000 0.625000
vt 0.875000 0.125000
vt 0.375000 0.625000
vn 0.000000 1.000000 0.000000
vn 0.000000 1.000000 0.000000
vn 0.000000 1.000000 0.000000
vn 0.000000 1.000000 0.000000
vn 0.000000 0.884148 0.467208
vn 0.000000 0.884148 0.467208
vn 0.000000 0.884148 0.467208
vn 0.000000 0.884148 0.467208
vn 0.000000 0.177733 0.984079
vn 0.000000 0.177733 0.984079
vn 0.000000 0.177733 0.984079
vn 0.000000 0.177733 0.984079
vn 0.467208 0.884148 -0.000000
vn 0.467208 0.884148 -0.000000
vn 0.467208 0.884148 -0.000000
vn 0.467208 0.884148 -0.000000
vn 0.984079 0.177733 -0.000000
vn 0.984079 0.177733 -0.000000
vn 0.984079 0.177732 -0.000000
vn 0.984079 0.177733 -0.000000
s off
f 5/5/1 4/4/2 2/2/3 3/3/4
f 8/10/5 9/12/6 5/9/7 3/3/8
f 9/12/9 8/10/10 1/1/11 7/8/12
f 9/11/13 10/13/14 4/4/15 5/5/16
f 10/13/17 9/11/18 7/7/19 6/6/20
