# This file uses centimeters as units for non-parametric coordinates.

v -0.250000 0.000000 -0.500000
v -0.250000 0.000000 0.500000
v -0.250000 0.537413 -0.500000
v -0.250000 0.537413 -0.261324
v 0.500000 0.537413 -0.500000
v 0.500000 0.537413 -0.261324
v 0.500000 0.000000 -0.500000
v 0.500000 0.000000 0.500000
v -0.250000 0.149364 0.473024
v 0.500000 0.149364 0.473024
v -0.335657 0.000000 -0.382523
v -0.335657 0.000000 0.382523
v -0.335657 0.114270 0.361885
v -0.335657 0.411146 -0.199925
v -0.335657 0.411146 -0.382523
v -0.500000 0.000000 -0.288378
v -0.500000 0.000000 0.288378
v -0.500000 0.086146 0.272819
v -0.500000 0.309956 -0.150720
v -0.500000 0.309956 -0.288378
vt 0.001891 0.455991
vt 0.001891 0.123858
vt 0.051499 0.132818
vt 0.180383 0.376719
vt 0.180383 0.455991
vt 0.238655 0.405054
vt 0.238655 0.510205
vt 0.311368 0.440412
vt 0.311368 0.577856
vt 0.001891 0.577856
vt 0.001891 0.510205
vt 0.087904 0.017527
vt 0.067695 0.081528
vt 0.001891 0.001992
vt 0.001891 0.069643
vt 0.750269 0.562322
vt 0.318370 0.562322
vt 0.318370 0.424877
vt 0.750269 0.424877
vt 0.318370 0.001992
vt 0.750269 0.001992
vt 0.947172 0.998008
vt 0.637694 0.998008
vt 0.637694 0.566110
vt 0.947172 0.566110
vt 0.631872 0.566110
vt 0.631872 0.998008
vt 0.545858 0.998008
vt 0.545858 0.566110
vt 0.273308 0.581645
vt 0.339112 0.581645
vt 0.322916 0.676284
vt 0.273308 0.676284
vt 0.540036 0.566110
vt 0.540036 0.889636
vt 0.445396 0.861301
vt 0.445396 0.617400
vt 0.344934 0.802874
vt 0.344934 0.566110
vt 0.439574 0.566110
vt 0.439574 0.744603
vn -1.000000 0.000000 0.000000
vn -1.000000 0.000000 0.000000
vn -1.000000 0.000000 0.000000
vn -1.000000 0.000000 0.000000
vn -1.000000 0.000000 0.000000
vn 0.000000 1.000000 0.000000
vn 0.000000 1.000000 0.000000
vn 0.000000 1.000000 0.000000
vn 0.000000 1.000000 0.000000
vn 0.000000 0.884147 0.467208
vn 0.000000 0.884147 0.467208
vn 0.000000 0.884147 0.467208
vn 0.000000 0.884147 0.467208
vn -0.000000 0.000000 -1.000000
vn -0.000000 0.000000 -1.000000
vn -0.000000 0.000000 -1.000000
vn -0.000000 0.000000 -1.000000
vn 0.000000 0.177733 0.984079
vn 0.000000 0.177733 0.984079
vn 0.000000 0.177733 0.984079
vn 0.000000 0.177733 0.984079
vn -0.803483 0.105810 0.585850
vn -0.803483 0.105810 0.585850
vn -0.803483 0.105810 0.585850
vn -0.803483 0.105810 0.585850
vn -0.695677 0.635131 0.335621
vn -0.695677 0.635131 0.335621
vn -0.695677 0.635131 0.335621
vn -0.695677 0.635131 0.335621
vn -0.827551 0.561391 0.000000
vn -0.827551 0.561391 0.000000
vn -0.827551 0.561391 0.000000
vn -0.827551 0.561391 0.000000
vn -0.808019 0.000000 -0.589157
vn -0.808019 0.000000 -0.589157
vn -0.808019 0.000000 -0.589157
vn -0.808019 0.000000 -0.589157
vn -0.491079 0.154827 0.857245
vn -0.491079 0.154827 0.857245
vn -0.491079 0.154827 0.857245
vn -0.491079 0.154827 0.857245
vn -0.374989 0.819631 0.433115
vn -0.374989 0.819631 0.433115
vn -0.374989 0.819631 0.433115
vn -0.374989 0.819631 0.433115
vn -0.524306 0.851530 0.000000
vn -0.524306 0.851530 0.000000
vn -0.524306 0.851530 0.000000
vn -0.524306 0.851530 0.000000
vn -0.497073 0.000000 -0.867709
vn -0.497073 0.000000 -0.867709
vn -0.497073 0.000000 -0.867709
vn -0.497073 0.000000 -0.867709
s off
f 16/1/1 17/2/2 18/3/3 19/4/4 20/5/5
f 5/16/6 3/17/7 4/18/8 6/19/9
f 9/20/10 10/21/11 6/19/12 4/18/13
f 5/22/14 7/23/15 1/24/16 3/25/17
f 10/26/18 9/27/19 2/28/20 8/29/21
f 2/14/22 9/12/23 13/13/24 12/15/25
f 9/12/26 4/8/27 14/6/28 13/13/29
f 4/8/30 3/9/31 15/7/32 14/6/33
f 3/9/34 1/10/35 11/11/36 15/7/37
f 12/30/38 13/31/39 18/32/40 17/33/41
f 13/34/42 14/35/43 19/36/44 18/37/45
f 14/6/46 15/7/47 20/5/48 19/4/49
f 15/38/50 11/39/51 16/40/52 20/41/53
