# This file uses centimeters as units for non-parametric coordinates.

v 0.500000 0.000000 -0.500000
v 0.500000 0.000000 0.500000
v 0.500000 0.537413 -0.500000
v 0.500000 0.537413 -0.261324
v -0.500000 0.537413 -0.500000
v -0.261324 0.537413 -0.261324
v -0.500000 0.000000 -0.500000
v 0.500000 0.149364 0.473024
v 0.473024 0.149364 0.473024
v -0.500000 0.000000 0.500000
v -0.500000 0.537413 0.500000
v -0.261324 0.537413 0.500000
v 0.473024 0.149364 0.500000
vt 0.375000 0.000000
vt 0.750000 0.000000
vt 0.375000 0.250000
vt 0.625000 0.250000
vt 0.375000 0.500000
vt 0.625000 0.500000
vt 0.875000 0.250000
vt 0.125000 0.000000
vt 0.125000 0.250000
vt 0.625000 0.125000
vt 0.875000 0.125000
vt 0.375000 0.000000
vt 0.750000 0.000000
vt 0.625000 0.125000
vt 0.625000 0.250000
vt 0.375000 0.250000
vt 0.375000 0.500000
vt 0.625000 0.500000
vt 0.875000 0.125000
vt 0.875000 0.250000
vt 0.125000 0.250000
vt 0.125000 0.000000
vn 0.000000 1.000000 0.000000
vn 0.000000 1.000000 0.000000
vn 0.000000 1.000000 0.000000
vn 0.000000 1.000000 0.000000
vn 0.000000 0.884148 0.467208
vn 0.000000 0.884148 0.467208
vn 0.000000 0.884148 0.467208
vn 0.000000 0.884148 0.467208
vn 0.000000 0.000000 -1.000000
vn 0.000000 0.000000 -1.000000
vn 0.000000 0.000000 -1.000000
vn 0.000000 0.000000 -1.000000
vn 0.000004 0.177732 0.984079
vn 0.000004 0.177732 0.984079
vn 0.000004 0.177732 0.984079
vn 0.000000 1.000000 0.000000
vn 0.000000 1.000000 0.000000
vn 0.000000 1.000000 0.000000
vn 0.000000 1.000000 0.000000
vn 0.467208 0.884148 0.000000
vn 0.467208 0.884148 0.000000
vn 0.467208 0.884148 0.000000
vn 0.467208 0.884148 0.000000
vn -1.000000 0.000000 0.000000
vn -1.000000 0.000000 0.000000
vn -1.000000 0.000000 0.000000
vn -1.000000 0.000000 0.000000
vn 0.984079 0.177733 0.000001
vn 0.984079 0.177733 0.000001
vn 0.984079 0.177733 0.000001
s off
f 5/5/1 6/6/2 4/4/3 3/3/4
f 8/10/5 4/4/6 6/7/7 9/11/8
f 5/9/9 3/3/10 1/1/11 7/8/12
f 9/11/13 2/2/14 8/10/15
f 5/17/16 11/16/17 12/15/18 6/18/19
f 13/14/20 9/19/21 6/20/22 12/15/23
f 5/21/24 7/22/25 10/12/26 11/16/27
f 9/19/28 13/14/29 2/13/30
